<svg width="96" height="96" viewBox="0 0 96 96" fill="none" xmlns="http://www.w3.org/2000/svg">
<path d="M48 8C37.3913 8 27.2172 12.2143 19.7157 19.7157C12.2143 27.2172 8 37.3913 8 48C8 58.6087 12.2143 68.7828 19.7157 76.2843C27.2172 83.7857 37.3913 88 48 88C58.6087 88 68.7828 83.7857 76.2843 76.2843C83.7857 68.7828 88 58.6087 88 48C88 37.3913 83.7857 27.2172 76.2843 19.7157C68.7828 12.2143 58.6087 8 48 8V8Z" fill="#F54637"/>
<path d="M66.08 29.338L60.81 35.362C64.016 38.612 66 43.074 66 48C66 57.942 57.942 66 48 66C38.058 66 30 57.942 30 48C30 43.072 31.984 38.61 35.192 35.36L29.922 29.336C25.044 34.064 22 40.672 22 48C22 62.36 33.64 74 48 74C62.36 74 74 62.36 74 48C74 40.672 70.958 34.064 66.08 29.338Z" fill="#FFCDD2"/>
<path d="M44 22H52V46H44V22Z" fill="#FFCDD2"/>
</svg>
