<svg width="96" height="96" viewBox="0 0 96 96" fill="none" xmlns="http://www.w3.org/2000/svg">
<path d="M72 8H52C52 10.2 50.2 12 48 12C45.8 12 44 10.2 44 8H24C19.6 8 16 11.6 16 16V80C16 84.4 19.6 88 24 88H72C76.4 88 80 84.4 80 80V16C80 11.6 76.4 8 72 8Z" fill="#465A64"/>
<path d="M72 82H24C22.8 82 22 81.2 22 80V16C22 14.8 22.8 14 24 14H72C73.2 14 74 14.8 74 16V80C74 81.2 73.2 82 72 82Z" fill="white"/>
<path d="M52 8C52 10.2 50.2 12 48 12C45.8 12 44 10.2 44 8H30V16C30 18.2 31.8 20 34 20H62C64.2 20 66 18.2 66 16V8H52Z" fill="#91A5AF"/>
<path d="M48 0C43.6 0 40 3.6 40 8C40 12.4 43.6 16 48 16C52.4 16 56 12.4 56 8C56 3.6 52.4 0 48 0ZM48 12C45.8 12 44 10.2 44 8C44 5.8 45.8 4 48 4C50.2 4 52 5.8 52 8C52 10.2 50.2 12 48 12Z" fill="#91A5AF"/>
<path d="M42 40H66V44H42V40ZM30 38H38V46H30V38Z" fill="#D2D7DC"/>
<path d="M42 58H66V62H42V58ZM30 56H38V64H30V56Z" fill="#05AAF5"/>
</svg>
