<svg width="72" height="72" viewBox="0 0 72 72" fill="none" xmlns="http://www.w3.org/2000/svg">
<g filter="url(#filter0_d_692_16397)">
<path d="M5.53066 57.9771C3.96749 60.6437 5.89047 64 8.98144 64H63.0186C66.1095 64 68.0325 60.6437 66.4693 57.9771L39.4508 11.8866C37.9055 9.25048 34.0945 9.25048 32.5492 11.8866L5.53066 57.9771Z" fill="#FFC346"/>
<path d="M38 52C38 53.1046 37.1046 54 36 54V54C34.8954 54 34 53.1046 34 52V52C34 50.8954 34.8954 50 36 50V50C37.1046 50 38 50.8954 38 52V52ZM38 42C38 43.1046 37.1046 44 36 44V44C34.8954 44 34 43.1046 34 42V32C34 30.8954 34.8954 30 36 30V30C37.1046 30 38 30.8954 38 32V42Z" fill="#AA8700"/>
</g>
<defs>
<filter id="filter0_d_692_16397" x="-4" y="0" width="80" height="80" filterUnits="userSpaceOnUse" color-interpolation-filters="sRGB">
<feFlood flood-opacity="0" result="BackgroundImageFix"/>
<feColorMatrix in="SourceAlpha" type="matrix" values="0 0 0 0 0 0 0 0 0 0 0 0 0 0 0 0 0 0 127 0" result="hardAlpha"/>
<feOffset dy="4"/>
<feGaussianBlur stdDeviation="2"/>
<feComposite in2="hardAlpha" operator="out"/>
<feColorMatrix type="matrix" values="0 0 0 0 0 0 0 0 0 0 0 0 0 0 0 0 0 0 0.25 0"/>
<feBlend mode="normal" in2="BackgroundImageFix" result="effect1_dropShadow_692_16397"/>
<feBlend mode="normal" in="SourceGraphic" in2="effect1_dropShadow_692_16397" result="shape"/>
</filter>
</defs>
</svg>
